<svg width="47" height="16" viewBox="0 0 47 16" fill="none" xmlns="http://www.w3.org/2000/svg">
<path d="M24.1375 0.74911C22.2313 0.273477 20.4016 3.26511 19.4039 7.26963C18.4061 11.2742 18.618 14.7753 20.5244 15.2509C22.4308 15.7265 24.2604 12.7349 25.2581 8.7303C26.2559 4.72577 26.0439 1.22467 24.1375 0.74911ZM30.127 7.99997C29.9043 12.4183 26.461 16 21.9276 16C17.3942 16 14.3122 12.4183 14.535 7.99997C14.7578 3.58163 18.201 0 22.7343 0C27.2677 0 30.3498 3.58163 30.127 7.99997ZM40.666 0.74911C38.7597 0.273477 36.93 3.26511 35.9323 7.26963C34.9347 11.2742 35.1463 14.7753 37.0527 15.2509C38.959 15.7265 40.7887 12.7349 41.7863 8.7303C42.784 4.72577 42.572 1.22467 40.666 0.74911ZM46.6553 7.99997C46.4327 12.4183 42.9893 16 38.456 16C33.9227 16 30.8406 12.4183 31.0633 7.99997C31.286 3.58163 34.7293 0 39.2627 0C43.796 0 46.878 3.58163 46.6553 7.99997ZM13.7583 10.4827C13.6345 14.031 10.3078 15.9556 6.883 15.9556C3.9812 15.9556 1.27179 14.4028 0 13.4584L1.43078 9.48L1.51609 9.51067C3.86893 13.0301 5.86827 15.454 7.95833 15.2654C9.34067 15.1406 10.1619 14.2973 10.2202 12.6262C10.3013 10.3017 8.52803 7.41987 1.85674 8.609L1.75693 8.573L4.75997 0.221998H14.8256L13.4743 3.9798H4.04407L3.15489 6.45267C8.48367 3.7136 13.8937 6.60303 13.7583 10.4827Z" fill="#0A1E25"/>
</svg>
